<?xml version="1.0" encoding="UTF-8" standalone="no"?>
<!DOCTYPE svg PUBLIC "-//W3C//DTD SVG 1.1//EN" "http://www.w3.org/Graphics/SVG/1.1/DTD/svg11.dtd">
<svg width="100%" height="100%" viewBox="0 0 1296 1728" version="1.1" xmlns="http://www.w3.org/2000/svg" xmlns:xlink="http://www.w3.org/1999/xlink" xml:space="preserve" xmlns:serif="http://www.serif.com/" style="fill-rule:evenodd;clip-rule:evenodd;stroke-linejoin:round;stroke-miterlimit:2;">
    <g id="Layer1">
        <path d="M551.46,673.792C545.68,663.577 568.964,645.135 576.821,620.06C596.041,558.721 611.713,473.732 633.781,422.55C653.194,377.831 677.082,362.091 696.477,356.831C716.208,351.479 735.553,356.155 752.48,365.776C762.849,371.67 771.655,380.056 778.573,384.153C793.081,393.229 802.143,406.351 800.842,426.307C800.104,437.636 795.013,453.835 786.78,472.633C777.689,493.389 764.906,519.139 761.593,546.497C757.343,580.511 742.463,624.97 776.123,663.755C796.14,686.818 831.185,707.615 890.699,724.277C947.869,740.103 989.838,732.695 1020.5,715.29C1082.91,679.855 1099.25,606.127 1099.25,606.127C1099.37,605.48 1099.99,605.048 1100.63,605.164C1101.28,605.28 1101.71,605.899 1101.6,606.546C1101.6,606.546 1090.74,685.038 1028.61,728.179C996.098,750.752 949.967,763.532 884.442,751.646C813.757,739.037 771.698,717.041 745.949,692.633C696.89,646.128 704.865,587.417 706.041,542.313C706.895,513.709 715.525,485.629 723.491,461.608C726.352,452.982 729.257,442.601 731.269,435.098C729.539,433.934 727.763,432.723 725.955,431.485C722.805,429.329 719.605,426.834 716.04,425.089C715.1,424.629 714.524,423.186 713.453,423.442C706.381,425.13 701.841,434.187 694.236,450.103C667.017,506.864 644.54,607.594 621.752,666.549C608.143,701.76 589.796,723.566 573.019,730.024L574.251,729.621C545.12,743.597 509.569,750.587 475.475,717.107C453.325,695.356 430.778,647.405 416.017,547.881C407.437,485.246 381.609,441.26 353.109,409.061C316.218,367.382 271.831,344.595 235.255,352.945C234.185,353.265 233.102,353.537 232.008,353.76C152.322,364 116.802,396.607 107.848,443.993C103.01,469.597 103.18,498.117 109.37,527.382C123.84,595.793 162.085,666.603 183.009,723.847C201.969,774.886 214.611,839.548 223.832,904.6C239.872,1017.76 244.928,1132.09 251.799,1174.33C257.005,1205.88 280.62,1267.43 321.528,1293.04C348.864,1310.16 382.837,1302.7 426.678,1256.72C427.047,1256.35 427.425,1255.98 427.811,1255.63C470.282,1221.35 504.006,1190.3 553.004,1171.32C590.728,1156.7 636.746,1148.41 701.969,1152.14C722.008,1152.63 747.404,1160.88 772.226,1172.7C817.777,1194.39 861.093,1225.63 861.093,1225.63C861.655,1225.98 861.833,1226.71 861.491,1227.27C861.149,1227.83 860.415,1228.01 859.854,1227.67C859.854,1227.67 813.077,1204.03 765.592,1190.03C743.031,1183.38 720.556,1179.16 703.558,1181.43C703.376,1181.44 703.193,1181.45 703.01,1181.45C644.956,1186.7 605.651,1199.36 574.399,1216.82C533.667,1239.58 508.2,1271.39 474.871,1306.58L476.005,1305.48C418.078,1362.1 367.877,1373.56 327.845,1364.2C295.133,1356.56 267.374,1334.77 246.413,1306.03C217.057,1265.77 200.445,1213.05 196.827,1182.07C191.737,1139.35 192.019,1024.24 180.25,909.93C173.837,847.64 163.786,785.634 147.366,736.407C127.469,677.785 96.057,603.636 77.413,535.101C68.239,501.377 61.426,469.175 62.778,438.76C65.863,369.334 105.563,311.633 216.995,280.206L213.747,281.022C273.451,258.773 361.413,273.944 426.821,342.186C436.788,352.584 445.731,364.666 453.805,377.911C479.197,419.566 496.778,473.414 499.801,539.935C502.3,599.603 508.351,636.897 518.65,659.531C523.163,669.451 525.4,676.239 531.118,677.18C537.975,678.308 544.893,676.151 551.06,673.955C551.193,673.899 551.326,673.845 551.46,673.792ZM745.029,443.536C745.04,443.542 745.051,443.547 745.061,443.552C745.051,443.547 745.04,443.542 745.029,443.536ZM555.466,672.506C555.5,672.497 555.535,672.489 555.57,672.48C555.535,672.487 555.5,672.495 555.466,672.506Z"/>
        <path d="M760.94,1202.45C760.517,1201.14 761.24,1199.73 762.554,1199.3C763.868,1198.88 765.278,1199.6 765.7,1200.92C765.7,1200.92 776.9,1227.27 811.925,1257.43C827.272,1270.65 847.135,1284.28 872.846,1296.87C898.22,1309.74 924.099,1313.85 948.185,1312.28C972.915,1310.68 995.798,1301.89 1013.52,1285.07C1028.04,1271.75 1040.64,1236.67 1052.51,1198.61C1074.67,1127.54 1090.22,1045.09 1090.22,1045.09C1090.34,1044.45 1090.49,1043.82 1090.66,1043.19C1090.66,1043.19 1116.75,956.284 1137.04,852.526C1149.54,788.615 1158.18,718.433 1162.96,659.397C1163.04,658.82 1163.13,658.244 1163.24,657.671C1166.36,633.146 1170.44,575.986 1166.8,516.359C1165,486.866 1160.22,457.092 1152.89,430.273C1142.64,392.734 1126.7,359.471 1082.35,358.333C1052.54,356.923 1033.41,364.163 1020.05,380.772C994.405,412.645 982.179,461.66 958.653,510.874L959.071,509.66C946.742,540.862 934.794,563.057 920.102,582.387C898.915,610.263 873.105,631.699 834.139,665.917C833.178,666.908 831.593,666.932 830.603,665.971C829.612,665.01 829.588,663.426 830.549,662.435C862.51,623.732 884.051,599.407 900,569.504C910.321,550.153 917.694,528.611 924.202,499.012C924.327,498.603 924.466,498.198 924.62,497.798C941.595,440.428 947.868,385.658 970.181,346.732C990.566,311.169 1022.98,288.512 1080.02,282.299C1169.62,274.495 1221.22,328.579 1243.98,404.116C1254.24,438.151 1256.68,477.249 1255.53,515.009C1253.49,581.539 1239.21,644.108 1232.43,670.805L1232.71,669.079C1227.64,693.889 1221.33,720.36 1214.51,747.688C1204.27,788.671 1192.16,830.857 1181.6,870.923C1157.05,964.005 1136.39,1043.4 1133.65,1053.95C1131.88,1063.35 1112.57,1164.16 1086.37,1238.11C1073.51,1274.39 1058.15,1304.32 1043.42,1317.75C1017.32,1340.75 984.414,1353.98 949.139,1353.33C918.857,1352.77 887.22,1342.52 857.742,1322.38C832.41,1304.54 813.433,1286.63 799.359,1269.82C767.84,1232.17 760.94,1202.45 760.94,1202.45Z"/>
    </g>
</svg>
