<svg width="313" height="396" viewBox="0 0 313 396" fill="none" xmlns="http://www.w3.org/2000/svg">
<path fill-rule="evenodd" clip-rule="evenodd" d="M10.2395 138.036C4.82981 138.855 4.1566 117.655 4.14323 110.252C4.10379 88.3084 1.63287 39.3148 4.08019 20.8598C6.70721 1.04859 30.3741 4.71522 40.4685 4.07814C70.8099 2.16347 99.8944 3.65938 132.205 3.63202C140.211 3.62511 148.554 1.95034 156.45 4.0816C164.395 6.22611 166.931 14.9176 167.759 27.5854C168.374 36.9848 168.77 86.5222 168.954 101.826C169.043 109.193 169.263 127.917 166.638 133.684C162.801 142.116 154.689 140.382 150.401 140.365C147.997 140.355 149.278 140.083 137.865 140.365C137.49 140.374 137.616 170.345 137.112 169.997C136.579 169.629 101.361 140.387 100.492 140.365C67.6884 139.511 28.0336 139.354 13.2631 137.985" fill="white"/>
<path d="M10.2395 138.036C4.82981 138.855 4.1566 117.655 4.14323 110.252C4.10379 88.3084 1.63287 39.3148 4.08019 20.8598C6.70721 1.04859 30.3741 4.71522 40.4685 4.07814C70.8099 2.16347 99.8944 3.65938 132.205 3.63202C140.211 3.62511 148.554 1.95034 156.45 4.0816C164.395 6.22611 166.931 14.9176 167.759 27.5854C168.374 36.9848 168.77 86.5222 168.954 101.826C169.043 109.193 169.263 127.917 166.638 133.684C162.801 142.116 154.689 140.382 150.401 140.365C147.997 140.355 149.278 140.083 137.865 140.365C137.49 140.374 137.616 170.345 137.112 169.997C136.579 169.629 101.361 140.387 100.492 140.365C67.6884 139.511 28.0336 139.354 13.2631 137.985" stroke="black" stroke-width="6" stroke-miterlimit="1.5" stroke-linecap="round" stroke-linejoin="round"/>
<path fill-rule="evenodd" clip-rule="evenodd" d="M194.026 194.885C186.44 195.26 174.629 198.514 174.038 200.594C173.116 203.842 175.097 216.018 171.783 222.576C170.371 225.372 165.006 225.121 162.927 226.032C155.972 229.078 135.383 234.856 131.138 242.131C129.437 245.046 118.985 281.21 113.431 299.661C112.805 301.741 112.098 303.665 111.329 305.446L111.046 304.062C108.782 292.91 107.65 286.16 107.65 283.81C107.65 280.137 110.577 264.644 107.65 260.704C104.752 256.803 97.7679 253.614 94.6258 253.55L94.5317 253.549C92.4686 253.549 90.6785 252.904 89.1613 251.613L86.9368 250.494C75.6206 244.811 69.0091 241.695 67.1025 241.143C64.0599 240.263 58.8819 242.138 61.4709 244.953C63.1969 246.83 67.5342 250.15 74.4827 254.914L77.1027 256.997L76.7862 257.162C73.4001 258.946 71.4092 260.447 70.8133 261.666C70.1991 262.923 70.4938 264.409 71.6974 266.125L71.5149 266.304C69.9928 267.798 69.2318 268.801 69.2318 269.311V271.805C67.7176 274.024 67.339 275.875 68.0961 277.357C68.8532 278.84 70.0537 280.124 71.6974 281.21C72.9087 284.399 74.3511 286.668 76.0247 288.018C77.6983 289.368 80.5908 290.492 84.7021 291.39L88.4225 300.291L91.4371 312.798L92.9561 326.752L92.515 327.072C90.4707 328.562 89.1613 329.666 89.1613 330.807C89.1613 332.586 97.4096 374.402 110.243 376.274C113.018 376.678 127.412 374.693 132.138 370.846L132.068 371.261C130.956 377.982 131.191 381.473 132.774 381.732C152.221 384.923 207.455 385.909 298.474 384.69C299.015 336.348 296.567 304.153 291.128 288.105C277.218 247.061 261.881 233.042 256.516 231.842C251.816 230.79 235.518 224.299 230.962 222.576C227.989 221.452 227.351 218.08 223.963 218.08L223.689 218.081C220.411 218.114 217.505 218.701 215.872 217.014C211.587 212.588 212.785 206.461 211.007 200.594C210.028 197.362 203.334 194.426 194.026 194.885Z" fill="#D08B5B"/>
<path d="M223.963 218.08L223.689 218.081C222.879 218.089 222.091 218.131 221.34 218.164L222.923 223.56L222.957 224.127C223.984 242.73 214.881 251.636 195.646 250.843C176.412 250.051 166.845 243.963 166.944 232.579L166.95 232.233L166.95 225.148L166.647 225.206C165.187 225.48 163.781 225.658 162.927 226.032C155.972 229.078 135.383 234.856 131.138 242.131C129.437 245.046 118.985 281.21 113.431 299.661C113.228 300.335 113.017 300.993 112.797 301.634L112.797 305.281L112.858 305.502C114.804 312.787 112.213 318.744 105.083 323.371C100.029 326.651 94.839 328.781 89.5124 329.759C89.2837 330.113 89.1613 330.458 89.1613 330.807C89.1613 332.586 97.4096 374.402 110.243 376.274C113.018 376.678 127.412 374.693 132.138 370.846L132.068 371.261L132.003 371.661C130.966 378.121 131.223 381.478 132.774 381.732C152.221 384.923 207.455 385.908 298.474 384.69C299.015 336.348 296.567 304.153 291.128 288.105C277.218 247.061 261.881 233.042 256.516 231.842C251.816 230.79 235.518 224.299 230.962 222.576C227.989 221.452 227.351 218.08 223.963 218.08Z" fill="#BA98DE"/>
<path fill-rule="evenodd" clip-rule="evenodd" d="M214.866 206.476C214.421 205.593 213.239 205.707 212.459 206.108C210.12 207.819 212.568 211.136 213.215 213.224C214.879 217.274 217.77 221.233 221.761 223.126C221.43 227.152 221.055 231.17 220.917 235.209C215.815 241.542 207.212 243.853 199.576 245.631C187.582 248.95 174.046 242.15 169.998 230.286C174.605 227.666 176.096 220.808 174.721 216.023C174.601 215.686 174.081 215.538 173.896 215.913C172.634 218.51 172.802 221.677 171.368 224.243C157.602 225.562 139.835 230.759 130.816 241.9C126.82 247.474 125.237 254.723 123.268 261.182C119.068 274.5 115.721 288.087 111.602 301.418L111.116 298.895C109.786 291.947 108.577 284.904 109.475 277.838L109.491 277.5C109.785 271.877 111.543 261.429 107.186 257.633C103.244 254.619 97.5345 252.197 92.5884 253.586C83.7864 249.667 76.1892 243.066 66.8149 240.496C63.9298 239.901 59.7791 240.605 60.4611 244.522C62.351 251.372 70.2656 254.031 75.676 257.563C72.2079 258.503 67.9799 262.724 70.6895 266.404C70.713 266.469 70.7338 266.519 70.7546 266.558C68.5572 267.533 68.2494 269.982 68.7887 272.082C68.8433 272.637 68.9892 272.16 68.6634 272.663C66.184 275.003 67.28 281.526 71.015 281.747C70.7705 284.837 72.7544 287.839 75.2672 289.525C77.9755 291.341 81.8915 291.419 84.1338 293.905C89.3981 303.194 91.2141 314.16 91.788 324.797C88.3177 326.097 85.2042 329.984 88.3571 333.281C88.4193 333.289 88.4815 333.296 88.5445 333.301C90.3722 338.182 91.0779 343.385 92.0445 348.482C93.5316 357.18 97.407 365.166 102.356 372.411C108.079 382.002 123.467 380.482 131.22 374.292C131.189 375.916 130.922 377.53 131.441 379.099C132.209 380.793 134.079 380.061 134.264 378.393C138.362 380.7 139.328 373.087 134.772 374.294C135.122 368.791 135.325 363.279 135.49 357.766C140.648 359.437 140.87 350.874 135.595 352.586L135.601 350.219C135.64 332.067 135.439 313.853 133.045 295.844C132.824 294.497 132.449 293.194 132.23 291.854C132.207 291.716 131.991 291.755 131.99 291.888C131.619 317.101 133.266 342.368 131.548 367.59C130.118 368.026 129.548 369.669 128.489 370.625C126.137 372.798 122.936 373.855 119.805 374.224C111.037 375.454 107.252 372.774 103.348 365.148C105.109 366.326 107.488 364.246 106.415 362.383L106.381 362.326C105.267 360.352 102.119 361.535 102.517 363.747C98.592 357.456 96.5375 350.363 95.0202 343.167L94.8149 342.307C94.0774 339.251 93.1202 335.75 91.3489 332.986C102.15 330.231 112.717 321.838 114.407 310.322C117.149 318.944 120.865 327.373 124.406 335.758C125.499 338.674 125.955 341.809 127.523 344.514C127.887 345.139 128.811 344.977 129.018 344.318C130.427 338.011 126.155 332.011 123.937 326.333C122.126 323.124 116.927 308.47 113.704 308.435C117.326 292.548 122.157 276.781 126.758 261.092C131.207 239.908 140.273 235.823 159.478 229.153C156.014 246.819 140.198 263.919 148.614 282.448L148.819 282.928C149.68 284.971 150.395 287.03 149.794 289.272C149.21 291.448 147.882 293.337 146.82 295.294C140.881 306.348 144.969 319.257 147.265 330.768C150.166 344.268 153.032 357.78 156.03 371.259C156.621 373.948 157.004 376.718 157.897 379.324C158.358 380.668 160.657 380.54 160.509 378.972C160.225 375.928 159.371 372.96 158.745 369.972C155.012 350.621 149.96 331.499 146.748 312.065C144.682 297.678 152.816 295.467 152.513 286.171C151.407 281.417 148.48 277.175 148.648 272.108C147.998 256.6 159.286 243.806 160.68 228.723L163.141 227.844C164.371 227.404 165.599 226.96 166.824 226.505C160.378 271.617 162.335 317.714 165.557 363.048C166.216 365.14 165.589 386.528 168.349 385.231C168.489 386.047 168.922 386.85 169.865 386.846C178.424 386.925 186.985 387.06 195.544 387.162C199.662 386.783 205.32 388.355 208.822 385.978C212.865 384.824 213.33 367.092 214.411 363.186L214.832 360.346C221.702 313.936 227.85 266.568 222.912 219.698C229.783 219.962 231.201 227.382 231.71 232.785C232.985 244.71 240.684 254.979 241.053 267.04C241.084 269.966 240.532 272.801 239.363 275.488C236.262 282.07 230.899 289.681 234.907 297.032C239.648 302.756 239.238 304.262 237.498 311.335C232.604 334.716 224.475 357.195 216.743 379.738C218.423 388.501 228.528 355.972 229.479 353.519C233.952 355.77 236.396 348.3 231.265 347.768C234.56 336.73 237.593 325.609 240.118 314.365L240.185 314.048C241.301 308.854 243.494 302.771 239.79 298.163C230.237 288.496 246.101 277.691 244.1 265.98C245.828 267.262 248.443 265.913 248.404 263.76C248.482 261.335 245.228 260.093 243.662 261.943C242.052 252.442 236.45 244.147 234.755 234.674L234.678 234.229C234.104 230.881 233.942 227.358 232.299 224.306C234.536 225.76 236.918 226.935 239.368 227.972C234.987 231.634 243.471 234.976 242.769 229.32C266.795 236.275 272.225 245.975 281.047 268.252C279.399 266.65 276.576 268.723 277.563 270.766C278.349 272.918 281.782 272.289 281.781 269.995L282.183 270.954C287.532 283.754 292.401 296.864 294.847 310.561C290.048 309.883 291.27 317.559 295.618 315.395C297.363 327.576 297.391 339.931 297.178 352.211C293.129 350.087 293.008 357.305 297.139 355.247C296.988 365.31 296.766 375.373 296.6 385.437C296.566 387.579 299.868 387.568 299.92 385.437C300.305 369.974 301.008 354.483 300.674 339.016C300.988 312.17 293.276 286.295 281.785 262.247C271.618 234.557 257.573 231.408 231.734 223.357C229.348 219.814 224.253 216.463 220.095 218.688C217.769 214.931 216.587 210.479 214.866 206.476ZM259.137 302.981C259.041 302.64 258.554 302.725 258.538 303.062C258.322 307.405 258.515 311.778 258.812 316.14C258.992 318.803 259.213 321.463 259.4 324.108C259.898 331.086 260.299 338.072 260.603 345.063C260.496 345.019 260.387 344.98 260.273 344.949C259.747 344.805 259.22 344.805 258.695 344.949C258.225 345.08 257.815 345.309 257.462 345.64L257.387 345.712C257.098 345.98 256.893 346.299 256.773 346.666C256.602 346.993 256.516 347.342 256.516 347.716L256.518 347.81C256.52 348.346 256.653 348.844 256.924 349.308C257.187 349.754 257.541 350.108 257.986 350.374C258.45 350.642 258.947 350.775 259.484 350.778C259.541 350.783 259.598 350.788 259.655 350.791C260.054 350.807 260.426 350.723 260.77 350.543L260.822 350.528C260.952 354.074 261.059 357.623 261.137 361.172C261.207 364.265 261.301 367.358 261.364 370.451L261.393 371.998L261.449 375.418C261.468 376.824 261.459 378.17 261.936 379.496L261.994 379.649C262.337 380.535 262.605 381.768 263.525 382.26C264.259 382.653 265.249 382.508 265.67 381.741C266.025 381.101 265.718 380.178 265.194 379.745C265.204 379.717 265.22 379.691 265.233 379.662C265.314 379.428 265.436 379.206 265.509 378.969C265.738 378.219 265.676 377.419 265.678 376.639C265.678 375.264 265.632 373.888 265.595 372.515C265.514 369.591 265.42 366.67 265.306 363.749C264.919 353.95 264.19 344.151 263.356 334.38L263.072 331.082C262.695 326.697 262.304 322.306 261.752 317.943C261.726 317.735 261.699 317.526 261.671 317.317C261.968 317.169 262.244 316.963 262.463 316.734C263.34 315.812 263.872 314.434 264.371 313.247L264.486 312.977C265.027 311.71 265.527 310.428 265.785 309.068L265.81 308.943C265.927 308.364 266.159 307.337 265.545 307.056C265.225 306.91 265.022 307.015 264.918 307.335C264.905 307.377 264.916 307.424 264.939 307.46C264.686 307.848 264.29 308.211 264.04 308.57L263.185 309.794L262.762 310.41C262.225 311.199 261.653 311.955 261.061 312.7C260.596 309.428 260.025 306.168 259.137 302.981ZM224.052 375.913C222.982 375.073 221.24 375.529 221.24 377.078C221.24 378.633 222.984 379.081 224.052 378.242L224.105 378.203L224.156 378.161C224.738 377.707 224.757 376.524 224.2 376.03L224.156 375.994C224.123 375.965 224.089 375.939 224.052 375.913ZM270.581 372.89C270.097 372.89 269.647 373.012 269.227 373.258C269.045 373.396 268.866 373.536 268.683 373.677C268.35 374.01 268.121 374.407 267.993 374.863L267.897 375.576C267.884 375.946 267.959 376.29 268.129 376.611C268.238 376.944 268.423 377.234 268.683 377.476C268.928 377.739 269.214 377.924 269.547 378.031C269.841 378.186 270.155 378.265 270.49 378.265L270.581 378.263C271.068 378.263 271.519 378.141 271.938 377.895C272.12 377.758 272.3 377.617 272.482 377.476C272.813 377.143 273.045 376.746 273.172 376.29C273.204 376.053 273.235 375.813 273.269 375.576C273.281 375.206 273.204 374.863 273.037 374.542C272.928 374.208 272.743 373.919 272.482 373.677C272.237 373.414 271.951 373.229 271.618 373.122C271.324 372.967 271.009 372.888 270.673 372.888L270.581 372.89ZM148.781 367.934L148.098 368.025C147.445 368.174 146.919 368.656 146.568 369.206C146.38 369.5 146.279 369.818 146.263 370.159C146.187 370.498 146.203 370.839 146.31 371.181C146.388 371.514 146.541 371.806 146.768 372.054C146.846 372.176 146.937 372.288 147.041 372.387C147.255 372.744 147.578 372.978 147.911 373.218C148.192 373.398 148.497 373.495 148.825 373.51C149.041 373.568 149.26 373.568 149.479 373.51C149.804 373.495 150.109 373.398 150.39 373.218C150.557 373.091 150.723 372.96 150.888 372.833C151.033 372.663 151.169 372.489 151.296 372.306C151.382 372.106 151.466 371.907 151.549 371.709C151.703 371.233 151.627 370.811 151.543 370.334C151.531 370.253 151.51 370.18 151.481 370.102L151.425 369.95C151.275 369.554 151.195 369.42 150.929 369.075L150.828 368.94C150.777 368.872 150.725 368.806 150.666 368.747C150.5 368.575 150.262 368.431 150.075 368.283C149.674 368.051 149.242 367.937 148.781 367.934ZM237.1 366.266C236.723 366.269 236.368 366.363 236.041 366.553L235.614 366.884C235.353 367.147 235.173 367.454 235.072 367.812C235.049 367.999 235.022 368.187 234.996 368.372C234.986 368.661 235.046 368.932 235.179 369.185C235.262 369.445 235.408 369.669 235.614 369.862C235.803 370.065 236.03 370.211 236.291 370.297C236.518 370.416 236.762 370.478 237.022 370.479L237.1 370.477C237.481 370.477 237.835 370.381 238.163 370.19L238.59 369.862C238.85 369.599 239.03 369.289 239.131 368.932C239.155 368.744 239.181 368.559 239.207 368.372C239.217 368.082 239.157 367.812 239.025 367.561C238.939 367.301 238.796 367.074 238.59 366.884C238.4 366.678 238.173 366.532 237.913 366.449C237.685 366.329 237.446 366.269 237.187 366.265L237.1 366.266ZM254.372 365.404C253.828 365.399 253.276 365.552 252.831 365.868C252.398 366.175 252.07 366.506 251.859 367.004C251.802 367.139 251.745 367.272 251.695 367.408C251.471 368.004 251.43 368.604 251.739 369.187C252.039 369.753 252.685 370 253.263 370.169C253.752 370.316 254.307 370.339 254.794 370.164C255.036 370.078 255.273 369.987 255.492 369.854C255.901 369.602 256.122 369.302 256.395 368.932C256.609 368.567 256.716 368.171 256.716 367.749C256.716 367.324 256.609 366.931 256.395 366.563C255.976 365.847 255.2 365.409 254.372 365.404ZM281.974 365.907C281.286 365.907 280.682 366.225 280.268 366.761C279.849 367.306 279.695 367.983 279.88 368.659C280.075 369.372 280.666 369.998 281.398 370.177C281.939 370.31 282.382 370.305 282.921 370.214C283.377 370.136 283.726 369.865 284.075 369.583C284.473 369.257 284.596 368.664 284.531 368.184C284.468 367.705 284.247 367.392 283.911 367.108L283.908 367.1L284.033 367.197C283.986 367.155 283.94 367.111 283.892 367.066C283.877 367.04 283.864 367.012 283.851 366.983C283.658 366.655 283.398 366.397 283.072 366.204C282.731 366.006 282.367 365.907 281.974 365.907ZM121.679 358.014C121.302 357.912 120.922 357.912 120.544 358.014C120.265 358.079 120.023 358.207 119.817 358.397C119.609 358.533 119.438 358.707 119.31 358.923L119.268 358.996C118.971 359.502 118.925 360.08 119.052 360.643C119.211 361.339 119.851 361.972 120.544 362.136L120.567 362.14L120.591 362.147C120.872 362.235 121.156 362.248 121.437 362.183C121.721 362.17 121.984 362.087 122.226 361.93C122.533 361.732 122.791 361.477 122.989 361.17C123.145 360.925 123.229 360.661 123.242 360.377C123.291 360.19 123.291 360.002 123.242 359.815C123.229 359.53 123.145 359.267 122.989 359.022L122.656 358.592L122.622 358.564C122.356 358.298 122.041 358.115 121.679 358.014ZM147.896 344.224C144.482 344.224 144.487 349.524 147.896 349.524C151.309 349.524 151.304 344.224 147.896 344.224ZM272.878 343.555C272.519 343.474 272.159 343.49 271.803 343.602C271.586 343.693 271.373 343.784 271.159 343.872L270.613 344.295C270.511 344.381 270.462 344.475 270.368 344.597L270.251 344.75C270.081 344.977 270.077 345.025 269.891 345.509C269.766 345.973 269.766 346.436 269.891 346.901C269.951 347.125 270.042 347.336 270.16 347.531C270.267 347.719 270.395 347.883 270.539 348.035L270.613 348.11C270.857 348.373 271.146 348.558 271.48 348.667C271.691 348.79 271.917 348.85 272.159 348.85C272.519 348.93 272.878 348.915 273.235 348.802C273.451 348.711 273.664 348.62 273.878 348.532L274.425 348.11L274.847 347.562L274.981 347.241L275.117 346.919L275.214 346.202C275.227 345.83 275.151 345.486 274.982 345.162C274.917 344.936 274.802 344.735 274.636 344.568C274.516 344.365 274.355 344.204 274.151 344.084C273.985 343.917 273.784 343.802 273.558 343.737C273.347 343.615 273.12 343.555 272.878 343.555ZM104.035 339.768C103.751 339.758 103.486 339.818 103.241 339.948C103.155 339.977 103.072 340.013 102.991 340.055C102.676 340.24 102.426 340.49 102.241 340.803C102.09 341.043 102.007 341.301 101.994 341.579C101.937 341.831 101.942 342.084 102.01 342.336L102.033 342.411C102.09 342.617 102.176 342.807 102.29 342.981C102.301 343.002 102.314 343.023 102.33 343.041C102.504 343.318 102.736 343.544 103.022 343.714C103.34 343.896 103.681 343.99 104.051 343.993C104.788 343.993 105.423 343.594 105.811 342.981C105.866 342.895 105.897 342.786 105.936 342.697C105.97 342.614 106.025 342.507 106.054 342.411C106.152 342.041 106.152 341.671 106.054 341.301C105.988 341.03 105.866 340.793 105.681 340.592C105.533 340.365 105.337 340.186 105.095 340.055C104.795 339.88 104.472 339.786 104.129 339.771L104.035 339.768ZM248.167 337.176C247.807 337.077 247.448 337.07 247.09 337.153L247 337.176C246.714 337.244 246.466 337.374 246.253 337.567C246.016 337.723 245.826 337.929 245.688 338.184C245.49 338.526 245.391 338.896 245.389 339.292C245.391 339.688 245.49 340.058 245.688 340.399C245.883 340.73 246.146 340.991 246.477 341.186L246.763 341.324C247.003 341.475 247.258 341.556 247.534 341.569C247.719 341.619 247.904 341.619 248.086 341.569C248.274 341.569 248.448 341.522 248.609 341.429C248.787 341.379 248.938 341.29 249.068 341.16C249.295 341.014 249.471 340.821 249.602 340.579L249.813 340.081L249.885 339.529L249.813 338.979L249.698 338.708C249.594 338.335 249.406 338.012 249.133 337.739C248.86 337.468 248.537 337.28 248.167 337.176ZM119.034 332.78C118.654 332.66 118.276 332.644 117.898 332.728C117.643 332.728 117.404 332.793 117.182 332.923C116.94 332.991 116.732 333.111 116.555 333.288C116.245 333.489 116.003 333.754 115.823 334.085L115.537 334.766C115.365 335.206 115.428 335.855 115.531 336.298C115.617 336.662 115.784 336.981 116.031 337.251C116.156 337.462 116.323 337.629 116.534 337.754C116.775 337.974 117.053 338.13 117.369 338.223L117.456 338.247L117.487 338.255C117.492 338.257 117.497 338.257 117.503 338.257C117.505 338.26 117.511 338.26 117.513 338.26C117.638 338.291 117.766 338.309 117.898 338.314C118.276 338.398 118.654 338.382 119.034 338.263C119.258 338.169 119.484 338.072 119.711 337.976C119.903 337.83 120.094 337.681 120.286 337.533C120.435 337.34 120.583 337.147 120.731 336.957C120.94 336.631 121.052 336.277 121.067 335.899C121.135 335.646 121.135 335.396 121.067 335.143C121.067 334.886 121.002 334.648 120.875 334.427C120.76 334.073 120.565 333.768 120.286 333.51C120.094 333.361 119.903 333.212 119.711 333.067C119.484 332.97 119.258 332.874 119.034 332.78ZM285.111 323.452C284.718 323.345 284.325 323.345 283.932 323.452L283.403 323.673C283.143 323.814 282.937 324.004 282.781 324.246C282.583 324.46 282.45 324.713 282.383 325.002C282.229 325.398 282.247 326.026 282.369 326.43C282.507 326.888 282.721 327.253 283.051 327.597C283.601 328.165 284.445 328.329 285.192 328.157C285.398 328.111 285.593 328.019 285.77 327.907C286.335 327.558 286.715 326.948 286.713 326.274C286.713 326.201 286.707 326.128 286.697 326.055C286.733 325.906 286.747 325.752 286.741 325.591L286.663 325.002L286.658 324.986C286.554 324.613 286.366 324.291 286.093 324.017C285.84 323.767 285.546 323.586 285.209 323.477L285.124 323.452H285.111ZM88.6227 264.94C89.3341 259.104 92.0085 252.825 100.166 256.252L100.772 256.48C102.79 257.244 105.142 258.249 106.371 260.015C107.217 261.232 106.931 263.59 107.048 265.01C107.58 269.628 107.294 274.238 106.74 278.836C106.025 289.613 108.289 300.779 112.797 310.574C108.286 317.879 102.247 324.693 94.0104 327.738C93.662 319.432 92.0369 311.279 90.3074 303.174L90.2393 302.82C89.5477 299.166 89.2015 295.415 86.8028 292.375C81.9236 287.075 75.2128 290.075 72.0019 281.559C72.6763 281.218 72.304 280.051 71.4913 280.275C68.6751 280.775 68.2176 275.551 70.1451 274.292C72.1534 273.066 70.1315 270.806 70.9864 269.174C71.4629 268.471 72.4914 268.447 72.9578 267.637C74.1936 264.653 68.0088 262.741 75.282 259.378C76.7707 258.848 78.4346 259.177 79.936 259.171C82.1447 259.377 83.9 260.935 85.9198 261.425C83.7205 267.123 89.2697 272.61 94.2784 268.059C97.0039 270.637 100.052 276.513 93.4266 273.774C90.184 271.608 87.3923 268.809 83.6281 267.475L83.5485 267.45C82.1512 266.992 76.0366 264.019 76.3398 266.592C78.6302 268.804 82.4077 268.778 85.0603 270.574C88.7378 272.276 91.0894 276.399 95.4918 276.342C96.5068 282.509 89.5135 278.757 86.9093 277.056L86.1873 276.664C82.514 274.679 78.7854 272.839 74.5017 272.814C73.3195 272.807 73.3247 274.631 74.5017 274.646C80.0844 274.681 84.6283 278.173 89.3049 280.769C89.7653 284.369 84.4973 282.793 82.4983 282.262C80.4024 281.968 77.0363 279.699 75.2018 280.897C74.4845 282.742 77.6417 282.605 78.7408 283.164C73.7226 285.576 78.1193 287.095 79.4647 283.388L79.8588 283.523C83.2192 284.653 91.3674 286.979 90.3983 281.283C91.6281 281.828 93.1277 282.153 94.4867 281.851C97.8757 286.867 103.282 284.926 95.4241 281.507C97.1948 280.683 97.7861 277.501 96.0852 276.317C102.27 275.939 97.6783 269.445 95.1184 267.281C95.36 267.036 95.5941 266.787 95.8123 266.535C97.2885 267.238 98.8402 267.665 100.499 267.817C102.088 267.96 102.441 265.255 100.874 265.034C99.1946 264.797 97.6476 264.348 96.1688 263.504C93.9274 262.535 93.1623 266.697 90.9191 266.845C89.6955 267.087 88.8677 266.013 88.6227 264.94ZM140.696 318.641C140.154 318.641 139.672 318.868 139.279 319.228C138.886 319.587 138.717 320.127 138.693 320.642C138.683 320.919 138.74 321.177 138.865 321.416C138.946 321.664 139.084 321.878 139.279 322.06C139.644 322.422 140.183 322.647 140.696 322.647C141.237 322.647 141.719 322.42 142.112 322.06C142.505 321.698 142.675 321.161 142.698 320.642C142.709 320.369 142.651 320.111 142.526 319.871C142.454 319.648 142.335 319.451 142.169 319.283L142.112 319.228C141.748 318.863 141.209 318.641 140.696 318.641ZM124.284 306.283L124.197 306.285C123.739 306.288 123.314 306.402 122.919 306.631C122.747 306.764 122.575 306.895 122.406 307.028C122.091 307.345 121.875 307.718 121.755 308.148C121.632 308.596 121.632 309.047 121.755 309.495C121.796 309.753 121.893 310.003 122.044 310.22C122.268 310.592 122.564 310.892 122.94 311.113C123.328 311.34 123.747 311.452 124.197 311.455C124.648 311.452 125.067 311.34 125.455 311.113C125.83 310.892 126.127 310.592 126.348 310.22C126.502 310.003 126.598 309.753 126.64 309.495C126.762 309.047 126.762 308.596 126.64 308.148C126.529 307.749 126.334 307.399 126.055 307.097L125.989 307.028C125.76 306.78 125.489 306.606 125.174 306.504C124.897 306.358 124.6 306.285 124.284 306.283ZM249.532 306.423C249.339 306.371 249.149 306.371 248.956 306.423C248.669 306.436 248.402 306.522 248.154 306.679C248.008 306.793 247.862 306.905 247.716 307.017L247.589 307.17C247.318 307.501 247.311 307.558 247.102 308.062C247.016 308.344 247.003 308.625 247.065 308.906C247.065 309.097 247.115 309.274 247.209 309.438C247.261 309.618 247.349 309.774 247.482 309.904C247.576 310.063 247.701 310.191 247.86 310.285C248.063 310.47 248.302 310.598 248.578 310.663L249.138 310.738C249.211 310.728 249.287 310.717 249.359 310.71C249.447 310.707 249.533 310.697 249.616 310.681L249.701 310.662L249.778 310.642C249.88 310.612 249.979 310.572 250.076 310.522C250.258 310.47 250.417 310.379 250.552 310.243C250.786 310.092 250.974 309.889 251.109 309.636L251.146 309.553C251.195 309.464 251.237 309.373 251.268 309.274C251.357 309.117 251.401 308.951 251.404 308.771C251.455 308.532 251.452 308.295 251.39 308.058L251.367 307.979L251.167 307.502C251.062 307.34 250.953 307.176 250.813 307.043C250.728 306.968 250.521 306.807 250.405 306.726L250.334 306.679C250.086 306.522 249.818 306.436 249.532 306.423ZM277.557 301.808C276.503 302.864 276.969 304.802 278.445 305.178L278.614 305.219C280.041 305.581 281.328 304.292 280.966 302.864L280.924 302.697C280.549 301.219 278.612 300.753 277.557 301.808ZM102.2 290.645C102.21 290.499 102.022 290.448 101.929 290.534C100.674 291.659 99.8742 293.009 98.3509 293.882C96.8196 294.757 95.2419 294.687 93.6457 295.252C93.104 295.445 93.1014 296.17 93.6457 296.36C96.6662 297.415 101.97 293.837 102.2 290.645ZM244.126 290.416C243.79 290.312 243.451 290.296 243.115 290.372C242.886 290.372 242.673 290.429 242.477 290.544C242.261 290.604 242.076 290.713 241.918 290.869C241.727 290.982 241.576 291.135 241.462 291.325C241.238 291.57 241.087 291.857 241.009 292.185L240.92 292.86L241.009 293.535C241.095 293.736 241.181 293.939 241.264 294.14L241.497 294.455C241.685 294.707 241.715 294.709 242.173 295.049C242.464 295.234 242.779 295.336 243.115 295.349C243.339 295.411 243.563 295.411 243.79 295.349C244.016 295.349 244.23 295.291 244.428 295.177C244.641 295.117 244.829 295.007 244.988 294.851C245.263 294.671 245.48 294.434 245.639 294.14C245.725 293.939 245.81 293.736 245.894 293.535L245.985 292.86L245.894 292.185L245.889 292.165C245.769 291.742 245.555 291.375 245.248 291.065L244.743 290.674C244.545 290.546 244.339 290.481 244.126 290.416ZM122.572 290.922C121.851 290.723 121.06 290.932 120.531 291.461C120.002 291.99 119.794 292.779 119.992 293.501C120.187 294.205 120.752 294.775 121.458 294.966C121.669 295.023 121.882 295.054 122.098 295.044C122.461 295.041 122.799 294.95 123.114 294.768L123.52 294.452C123.718 294.27 123.856 294.054 123.937 293.804C124.065 293.564 124.122 293.306 124.112 293.027L124.114 292.978C124.122 292.879 124.109 292.779 124.077 292.683C124.077 292.581 124.062 292.482 124.036 292.386C123.846 291.683 123.273 291.114 122.572 290.922ZM278.068 283.865C277.836 283.857 277.62 283.904 277.419 284.011C277.208 284.079 277.029 284.194 276.878 284.36C276.711 284.511 276.596 284.694 276.529 284.902C276.422 285.103 276.375 285.319 276.383 285.551C276.383 285.856 276.461 286.14 276.612 286.401C276.701 286.516 276.789 286.63 276.878 286.742C277.086 286.953 277.333 287.096 277.62 287.177L277.786 287.234C278.031 287.323 278.271 287.328 278.526 287.295C278.794 287.258 279.042 287.185 279.26 287.018C279.474 286.893 279.643 286.724 279.768 286.51L279.911 286.171C279.942 286.057 279.955 285.885 279.963 285.765C279.963 285.747 279.963 285.731 279.966 285.713C279.966 285.611 279.935 285.364 279.909 285.262C279.851 285.048 279.734 284.845 279.601 284.673C279.487 284.493 279.331 284.353 279.138 284.248L279.121 284.235L279.101 284.222C279.042 284.181 278.979 284.139 278.917 284.094C278.656 283.943 278.372 283.865 278.068 283.865ZM143.604 282.015C143.188 282.015 142.8 282.122 142.44 282.33C142.427 282.335 142.414 282.341 142.404 282.346C142.06 282.549 141.787 282.823 141.583 283.167C141.375 283.524 141.271 283.91 141.271 284.321C141.271 284.736 141.375 285.119 141.583 285.476C141.787 285.82 142.06 286.093 142.404 286.297C142.414 286.304 142.427 286.309 142.44 286.315C142.8 286.523 143.188 286.627 143.604 286.63C144.018 286.627 144.406 286.523 144.766 286.315C145.469 285.903 145.909 285.134 145.909 284.321C145.909 283.508 145.469 282.74 144.766 282.33C144.406 282.122 144.018 282.015 143.604 282.015ZM251.74 279.002L251.669 279.001C251.393 278.99 251.136 279.047 250.899 279.175C250.651 279.256 250.435 279.394 250.253 279.589L249.872 279.907L249.762 279.997C249.744 280.012 249.726 280.027 249.709 280.043C249.453 280.301 249.279 280.603 249.18 280.952C249.149 281.153 249.123 281.351 249.102 281.551C249.045 282.072 249.352 282.607 249.69 282.977C249.872 283.172 250.089 283.31 250.338 283.394C250.578 283.519 250.838 283.576 251.115 283.566C251.68 283.516 252.216 283.396 252.622 282.958C252.669 282.906 252.714 282.852 252.76 282.797L253.086 282.422C253.333 282.172 253.505 281.877 253.599 281.538C253.625 281.358 253.648 281.181 253.671 281.004C253.695 280.47 253.435 279.97 253.086 279.589C252.763 279.237 252.216 279.022 251.74 279.002ZM264.884 273.515C262.176 273.515 262.181 277.719 264.884 277.719C267.59 277.719 267.584 273.515 264.884 273.515ZM128.73 267.622L128.645 267.624C128.197 267.626 127.778 267.738 127.39 267.965L126.885 268.353C126.577 268.666 126.364 269.031 126.244 269.453C126.216 269.674 126.187 269.896 126.155 270.115C126.142 270.459 126.216 270.779 126.371 271.076C126.47 271.384 126.642 271.652 126.885 271.879C127.111 272.121 127.377 272.293 127.686 272.392C127.983 272.549 128.304 272.622 128.645 272.609C129.095 272.606 129.515 272.494 129.903 272.267C130.072 272.137 130.238 272.007 130.408 271.879C130.691 271.59 130.895 271.257 131.017 270.876L131.046 270.779L131.137 270.115C131.15 269.774 131.077 269.453 130.921 269.156C130.822 268.846 130.65 268.58 130.408 268.353C130.181 268.111 129.913 267.939 129.606 267.84C129.334 267.697 129.042 267.623 128.73 267.622ZM140.928 259.755C140.685 259.746 140.461 259.796 140.25 259.906C140.034 259.976 139.847 260.098 139.688 260.268C139.352 260.536 139.146 261.073 139.146 261.508C139.146 261.943 139.352 262.48 139.688 262.748C139.907 262.965 140.165 263.116 140.461 263.199L140.928 263.262C141.381 263.283 141.841 263.046 142.164 262.748C142.229 262.689 142.292 262.629 142.357 262.571C142.651 262.3 142.779 261.896 142.797 261.508C142.805 261.302 142.76 261.11 142.667 260.93C142.607 260.742 142.503 260.583 142.357 260.445C142.292 260.388 142.229 260.328 142.164 260.268C141.813 259.942 141.401 259.778 140.928 259.755ZM63.6485 245.738C61.9375 243.653 62.9338 242.168 65.5051 242.684C69.9344 243.284 74.103 246.085 78.0039 248.094C82.2616 250.344 86.6494 252.2 90.9925 254.315C89.2005 255.415 87.8678 257.139 86.8497 259.106C84.8173 257.561 82.2194 256.823 79.6834 256.727C75.0826 252.317 67.4633 251.308 63.6485 245.738ZM265.795 252.662C265.331 252.664 264.897 252.773 264.489 252.991L264.402 253.039L263.845 253.472C263.574 253.722 263.384 254.019 263.272 254.361C263.1 254.689 263.022 255.046 263.035 255.426C263.022 255.807 263.1 256.161 263.272 256.489C263.384 256.833 263.574 257.128 263.845 257.378C263.999 257.579 264.197 257.735 264.434 257.85C264.655 257.941 264.874 258.035 265.095 258.128C265.342 258.207 265.629 258.217 265.897 258.23C266.384 258.227 266.837 258.105 267.259 257.86L267.806 257.438C268.069 257.193 268.256 256.904 268.366 256.568C268.521 256.272 268.599 255.956 268.599 255.618L268.597 255.525C268.597 255.505 268.597 255.481 268.594 255.458C268.563 255.213 268.529 254.968 268.496 254.723C268.41 254.363 268.246 254.048 268.001 253.782C267.938 253.657 267.855 253.555 267.748 253.472C267.405 253.128 266.999 252.894 266.53 252.76C266.285 252.729 266.04 252.695 265.795 252.662ZM144.896 245.759C144.544 245.759 144.219 245.848 143.917 246.022C143.784 246.124 143.654 246.225 143.524 246.327C143.281 246.569 143.115 246.856 143.024 247.184L142.953 247.7C142.946 247.969 143 248.216 143.123 248.448C143.201 248.688 143.334 248.896 143.524 249.074C143.698 249.264 143.906 249.397 144.148 249.475C144.378 249.597 144.628 249.652 144.896 249.642C145.245 249.642 145.573 249.553 145.875 249.376C146.005 249.277 146.138 249.175 146.268 249.074C146.488 248.851 146.646 248.592 146.741 248.297L146.766 248.216L146.836 247.7C146.846 247.432 146.791 247.184 146.669 246.952C146.591 246.71 146.455 246.502 146.268 246.327C146.091 246.137 145.883 246.004 145.643 245.926C145.435 245.816 145.211 245.76 144.975 245.758L144.896 245.759ZM250.575 242.936L250.484 242.937C249.966 242.94 249.485 243.07 249.037 243.33C248.844 243.479 248.651 243.628 248.459 243.779C248.102 244.136 247.857 244.558 247.719 245.045L247.618 245.806C247.602 246.202 247.685 246.569 247.865 246.911C247.979 247.268 248.177 247.575 248.459 247.836C248.716 248.115 249.024 248.313 249.38 248.428C249.722 248.607 250.089 248.691 250.484 248.675C251.003 248.675 251.484 248.545 251.932 248.284C252.125 248.135 252.317 247.985 252.513 247.836C252.867 247.476 253.112 247.054 253.25 246.569L253.351 245.806C253.367 245.412 253.284 245.043 253.104 244.701C252.989 244.347 252.792 244.037 252.513 243.779C252.252 243.497 251.945 243.299 251.589 243.185C251.274 243.019 250.937 242.937 250.575 242.936ZM154.158 235.771C153.921 235.709 153.684 235.709 153.447 235.771C153.093 235.787 152.762 235.894 152.455 236.089L151.916 236.506C151.908 236.514 151.9 236.522 151.892 236.532C151.567 236.86 151.341 237.249 151.216 237.694L151.122 238.395C151.109 238.758 151.184 239.096 151.348 239.409C151.446 239.71 151.608 239.971 151.83 240.197L151.916 240.282C152.158 240.542 152.442 240.727 152.773 240.834C152.981 240.957 153.208 241.017 153.447 241.017C153.801 241.097 154.158 241.082 154.512 240.97C154.723 240.878 154.937 240.79 155.15 240.701L155.218 240.662C156.022 240.222 156.52 239.3 156.52 238.395C156.52 237.491 156.022 236.566 155.218 236.126C155.194 236.115 155.174 236.102 155.15 236.089C154.843 235.894 154.512 235.787 154.158 235.771Z" fill="black"/>
<path fill-rule="evenodd" clip-rule="evenodd" d="M147.891 135.59C147.606 132.947 150.707 125.896 150.632 127.326C155.603 119.679 165.304 116.671 173.674 114.147C191.442 108.294 205.317 115.362 217.801 127.889C225.172 134.759 232.185 142.432 235.885 151.941C243.163 170.082 232.253 190.767 215.661 199.433C214.323 200.156 212.864 200.842 211.589 201.716C204.73 205.67 196.676 207.037 189.033 208.758C174.735 212.019 156.778 210.465 148.351 196.882C142.636 187.243 144.154 175.557 144.602 164.859C145.274 155.486 146.454 144.894 147.891 135.59Z" fill="#D08B5B"/>
<path fill-rule="evenodd" clip-rule="evenodd" d="M224.318 108.839C215.055 100.199 201.363 96.0108 188.845 96.7432C182.065 97.14 175.53 98.8351 169.403 101.747C167.487 102.658 165.62 103.724 163.898 104.979C162.736 105.52 161.601 106.105 160.501 106.742C154.991 109.926 150.732 114.75 148.006 120.471C146.705 123.202 145.678 126.082 145.097 129.049L145.003 129.537C144.706 131.026 144.12 132.988 144.862 134.381C145.354 135.305 146.384 135.888 147.36 135.809C147.148 136.665 146.895 137.521 146.732 138.383L146.291 140.732C146.217 141.124 146.145 141.515 146.073 141.907C145.647 144.24 145.254 146.571 144.94 148.923C144.284 153.82 143.69 158.727 143.167 163.642C142.792 167.157 142.44 170.676 142.099 174.194L141.895 176.304C141.545 179.937 141.27 183.603 141.508 187.252C141.867 192.726 143.554 197.72 146.829 201.782C146.517 202.531 146.412 203.374 146.177 204.306C145.852 205.594 145.429 206.855 144.978 208.106C144.767 208.598 144.556 209.089 144.347 209.582L143.797 210.887V210.887L143.368 211.743C142.903 212.674 142.454 213.619 142.168 214.583C140.318 215.569 138.807 217.177 138.733 219.381C138.667 221.373 139.703 223.482 141.453 224.497C143.18 225.5 144.958 225.105 146.611 224.339C148.053 224.758 149.596 224.811 151.024 224.364C152.124 225.357 153.542 226.042 155.114 226.227C157.484 226.508 159.734 225.846 161.908 224.976L162.06 224.915C162.128 224.888 162.196 224.86 162.261 224.831C164.762 224.711 167.253 223.724 169.026 221.975C169.604 221.409 170.104 220.762 170.507 220.036C171.969 217.397 172.197 214.158 170.758 211.54C171.067 211.553 171.378 211.566 171.687 211.574C175.803 211.691 179.926 211.481 184.032 211.211L185 211.146C187.657 210.955 191.575 210.505 191.65 207.22C191.66 206.8 191.226 206.484 190.828 206.596C189.319 207.021 187.835 207.69 186.271 207.93C184.225 208.246 182.107 208.28 180.04 208.394L179.445 208.427C175.278 208.655 170.96 208.794 166.86 207.969C163.8 207.356 160.61 206.238 157.806 204.855C155.114 203.524 152.668 201.783 150.696 199.509C146.35 194.508 145.775 187.453 145.987 181.125C146.243 173.569 147.133 166.023 147.635 158.476L147.862 155.086C148.049 152.259 148.221 149.428 148.292 146.6C148.344 144.535 148.31 142.465 148.3 140.401C148.294 139.37 148.307 138.333 148.284 137.302C148.271 136.723 148.203 136.156 148.153 135.59C148.383 135.47 148.598 135.303 148.791 135.081C148.943 134.906 149.061 134.721 149.142 134.533C150.118 134.248 150.57 133.87 151.203 133.011C151.737 132.288 152.341 131.62 152.987 130.993C154.363 129.662 155.936 128.574 157.597 127.626C161.032 125.666 164.793 124.356 168.587 123.28C174.395 121.636 180.427 120.79 186.321 119.469C187.945 121.729 189.667 123.922 191.467 126.044C197.083 132.664 203.524 138.565 210.425 143.828C211.83 144.901 213.253 145.958 214.697 146.983C216.599 149.877 218.521 152.757 220.472 155.618L221.31 156.842L221.323 156.866C221.438 157.041 221.549 157.216 221.658 157.391C221.891 157.761 222.153 158.119 222.43 158.466C222.61 158.729 222.794 158.993 222.979 159.257C222.623 159.447 222.299 159.661 222.045 159.899C221.527 160.387 221.614 161.162 222.045 161.658C223.437 163.261 225.64 161.173 227.241 160.617C228.975 161.144 230.422 163.204 231.141 164.777C232.177 167.046 232.593 169.781 232.125 172.237C231.696 174.482 230.54 176.422 228.617 177.638C228.549 177.68 228.476 177.724 228.405 177.763C228.402 177.769 228.402 177.769 228.4 177.766C228.334 177.808 228.266 177.847 228.198 177.883C227.296 178.379 226.304 178.672 225.276 178.742C224.688 178.784 224.073 178.752 223.484 178.823C222.88 178.893 222.383 179.17 221.802 179.317C221.161 179.481 220.748 180.34 221.151 180.916C221.349 181.201 221.538 181.473 221.74 181.715C221.077 182.493 220.502 183.352 219.981 184.169C219.27 185.288 218.639 186.476 218.064 187.688C217.533 188.384 217.025 189.094 216.533 189.82C213.747 193.939 211.615 198.528 210.305 203.323C209.007 208.065 208.196 213.393 209.397 218.235C210.503 222.688 213.734 226.376 218.516 226.614C219.514 226.663 220.496 226.552 221.419 226.299C223.446 227.548 225.959 228.177 228.207 228.25C230.026 228.31 232.018 227.928 233.503 226.83C235.266 227.595 237.178 228.03 238.84 228.129C240.7 228.239 242.647 227.733 244.164 226.732C245.607 227.965 247.164 229.006 248.933 229.72C251.975 230.947 255.596 230.795 258.382 228.96C261.173 227.123 262.594 223.824 261.741 220.55C260.956 217.533 258.489 215.319 256.172 213.414L255.714 213.039C253.421 211.172 251.106 209.365 249.634 206.734C248.072 203.944 247.502 200.702 247.348 197.544C247.013 190.59 248.431 183.699 248.862 176.782C249.307 169.638 249.059 162.472 248.083 155.38C246.186 141.604 241.195 128.099 232.164 117.36C230.858 115.806 229.459 114.325 227.985 112.921C226.859 111.451 225.641 110.073 224.318 108.839ZM104.196 187.5C104.146 187.502 104.099 187.505 104.055 187.523C104.025 187.536 104 187.556 103.976 187.578L103.756 187.797C103.678 187.875 103.683 187.995 103.756 188.074C103.82 188.145 103.937 188.147 104.012 188.092L104.034 188.074L104.261 187.846C104.286 187.819 104.308 187.79 104.319 187.753C104.329 187.716 104.329 187.674 104.332 187.635C104.334 187.565 104.266 187.5 104.196 187.5ZM226.935 166.174C224.837 165.539 222.32 167.048 221.07 168.641C220.442 169.439 220.264 170.533 221.07 171.319C221.755 171.987 223.094 172.109 223.756 171.319C224.507 170.418 225.119 169.17 226.192 168.594C227.356 167.967 228.915 168.124 229.19 169.651C229.237 169.909 229.608 169.823 229.624 169.591C229.726 168.046 228.368 166.604 226.935 166.174Z" fill="black"/>
<path fill-rule="evenodd" clip-rule="evenodd" d="M181.649 187.066C179.573 182.861 160.527 184.751 160.527 184.751L158.918 198.117C158.918 198.117 168.108 201.108 173.578 200.481C179.048 199.854 183.726 191.271 181.649 187.066Z" fill="white"/>
<path fill-rule="evenodd" clip-rule="evenodd" d="M180.307 194.086C180.965 192.661 167.349 188.774 163.134 191.43C158.918 194.086 160.236 197.709 160.236 197.709C160.236 197.709 177.967 201.804 180.307 194.086Z" fill="#FF8181"/>
<path fill-rule="evenodd" clip-rule="evenodd" d="M182.83 184.578C179.652 180.838 174.3 180.578 169.866 181.513C167.02 182.113 164.25 183.113 161.36 183.483C160.01 183.656 158.646 183.708 157.287 183.683C155.951 183.658 154.614 183.385 153.283 183.436C153.078 183.444 153.001 183.716 153.178 183.826C155.004 184.962 157.463 185.326 159.62 185.548C159.613 185.71 159.604 185.867 159.581 186.001C159.523 186.358 159.469 186.712 159.426 187.071C159.328 187.881 159.218 188.688 159.109 189.496C158.894 191.086 158.826 192.727 158.447 194.29L158.381 194.549C158.293 194.878 158.273 195.174 158.303 195.441L158.215 195.401L157.938 195.265L157.756 195.178C157.093 194.867 156.461 194.641 155.682 194.716C155.088 194.773 154.59 195.183 154.587 195.825C154.572 198.704 158.404 199.629 160.595 200.18L161.238 200.341C164.028 201.03 166.876 201.634 169.745 201.778C174.349 202.01 179.523 200.724 182.535 196.942C185.345 193.413 185.861 188.143 182.83 184.578ZM161.921 196.674C162.404 192.34 167.664 192.101 169.177 194.85C169.849 191.018 179.782 194.519 179.005 195.28C176.061 198.167 171.593 198.427 167.753 197.893C165.797 197.621 163.839 197.179 161.921 196.674ZM167.758 185.313L169.081 185.121L169.602 185.048C172.88 184.603 176.567 184.374 179.262 186.502C180.246 187.279 180.8 188.292 181.007 189.381C178.456 188.998 175.897 188.706 173.329 188.463L172.629 188.398C171.022 188.251 169.417 188.096 167.812 187.934L166.671 187.817L165.531 187.698C165.13 187.655 162.426 187.515 161.918 187.609C161.864 187.146 161.793 186.145 161.678 185.695C163.599 185.761 165.512 185.617 167.421 185.36L167.758 185.313ZM161.671 165.939C159.711 167.146 156.725 169.959 158.833 172.949C161.315 175.586 164.888 172.562 166.649 171.195C168.281 170.136 170.115 172.861 168.601 174.098C155.878 183.637 150.715 166.255 160.68 164.521C161.777 164.33 162.184 165.566 161.671 165.939ZM158.164 171.021L158.07 170.969L158.038 170.95C157.983 170.914 158.018 170.918 158.143 170.962L158.237 170.996V171.063C158.213 171.048 158.187 171.037 158.164 171.021ZM183.262 160.304L183.262 160.245C183.259 158.569 182.295 154.743 179.912 154.743C178.424 154.743 177.52 157.347 177.364 160.031L177.359 160.141C177.29 161.81 177.742 165.458 179.912 165.458C182.106 165.458 183.239 162.003 183.262 160.304V160.304ZM148.187 159.779L148.187 159.719C148.19 158.044 149.154 154.217 151.537 154.217C152.988 154.217 153.883 156.693 154.072 159.305L154.085 159.506C154.179 161.118 153.756 164.932 151.537 164.932C149.343 164.932 148.21 161.477 148.187 159.779V159.779ZM181.903 143.317C179.958 143.018 177.384 143.587 176.477 145.589C176.073 146.48 176.552 147.467 177.57 147.516C180.03 147.635 182.237 147.081 184.397 148.701C185.326 149.398 186.107 150.364 186.763 151.327L187.011 151.694L187.217 151.996C187.662 152.659 188.084 153.379 188.018 154.179C187.998 154.415 188.237 154.64 188.464 154.631C189.88 154.572 190.032 152.775 189.846 151.695C189.5 149.692 188.543 147.812 187.216 146.298C185.822 144.707 183.982 143.638 181.903 143.317ZM155.123 145.748C153.783 144.875 152.068 144.54 150.497 144.669C147.4 144.921 142.205 147.587 142.889 151.417C143.1 152.599 144.723 153.222 145.679 152.566C146.707 151.862 146.957 150.767 147.722 149.846C148.332 149.11 149.106 148.578 149.934 148.125C150.751 147.678 151.695 147.407 152.622 147.308L152.776 147.293C153.334 147.245 156.15 147.258 155.737 148.323C155.656 148.531 155.962 148.696 156.103 148.538C156.966 147.571 155.988 146.311 155.123 145.748Z" fill="black"/>
<path d="M76.6353 84.4266C76.6075 84.1974 76.5859 83.969 76.5704 83.7387C76.5189 82.9765 76.382 80.9476 76.1596 77.6522C75.9315 74.2725 75.7933 72.225 75.745 71.5097C75.732 71.3169 75.7234 71.1267 75.719 70.9335C75.7015 70.1673 75.6492 67.8728 75.562 64.0499C75.453 59.2688 75.5041 54.5424 75.7156 49.8705C75.927 45.1987 76.3147 41.119 76.8789 37.6312C77.4431 34.1435 78.1487 31.9299 78.9959 30.9905C79.8431 30.051 80.9988 29.4532 82.4629 29.197C83.927 28.9408 85.5032 28.7845 87.1915 28.7282C88.8798 28.6719 90.8032 28.6508 92.9617 28.6649C95.1202 28.679 96.2301 28.7274 96.2916 28.8101C96.353 28.8928 96.3842 28.9856 96.3853 29.0886C96.3864 29.1916 96.3571 29.2851 96.2974 29.3691C96.2378 29.4531 96.1904 29.7458 96.1552 30.2474C96.12 30.749 95.9874 32.1794 95.7576 34.5386C95.5277 36.8979 95.166 39.8872 94.6724 43.5065C94.1788 47.1258 93.715 51.1014 93.2809 55.4333C92.8469 59.7651 92.5279 64.2716 92.324 68.9529C92.12 73.6341 91.9922 77.9242 91.9406 81.8232C91.8889 85.7223 91.6056 88.2611 91.0906 89.4397C90.5756 90.6182 89.7965 91.5007 88.7533 92.0871C87.7102 92.6734 86.1475 93.3055 84.0655 93.9832C81.9834 94.6609 80.8674 94.9895 80.7175 94.9689C80.5676 94.9484 80.4568 94.8715 80.3853 94.7382C80.3137 94.6048 80.3109 94.47 80.3767 94.3337C80.4426 94.1975 80.55 94.1159 80.6989 94.0891C80.8478 94.0623 80.9769 94.1012 81.0862 94.2059C81.1954 94.3107 81.2398 94.438 81.2193 94.5879C81.1988 94.7379 81.1218 94.8486 80.9885 94.9201C80.8551 94.9917 80.7203 94.9945 80.584 94.9287C80.4478 94.8629 80.3662 94.7555 80.3394 94.6065C80.3126 94.4576 80.3515 94.3285 80.4563 94.2193C80.561 94.11 81.6308 93.7277 83.6656 93.0724C85.7005 92.417 87.191 91.8542 88.1371 91.384C89.0832 90.9137 89.7807 90.1602 90.2297 89.1233C90.6787 88.0864 90.9227 85.6281 90.9615 81.7484C91.0004 77.8686 91.1224 73.579 91.3275 68.8796C91.5326 64.1802 91.8529 59.6586 92.2883 55.3148C92.7238 50.971 93.1877 46.9941 93.6802 43.3839C94.1727 39.7737 94.6569 36.702 95.133 34.1687C95.6091 31.6354 95.9059 30.0883 96.0233 29.5274C96.1407 28.9665 96.2301 28.7274 96.2916 28.8101C96.353 28.8928 96.3842 28.9856 96.3853 29.0886C96.3864 29.1916 96.3571 29.2851 96.2974 29.3691C96.2378 29.4531 95.1326 29.5197 92.9819 29.5691C90.8312 29.6184 88.9327 29.6689 87.2864 29.7204C85.6401 29.7719 84.1469 29.8851 82.807 30.0602C81.4671 30.2353 80.4346 30.7156 79.7097 31.5013C78.9847 32.2869 78.3566 34.3861 77.8252 37.7989C77.2937 41.2116 76.923 45.2409 76.7129 49.8868C76.5029 54.5327 76.452 59.2386 76.5605 64.0044C76.6689 68.7703 76.8673 73.2911 77.1557 77.5668C77.444 81.8426 77.7796 85.8545 78.1624 89.6027C78.5452 93.351 78.7258 95.2754 78.7042 95.3761C78.6825 95.4768 78.6334 95.5615 78.5567 95.6303C78.48 95.699 78.3904 95.7387 78.2879 95.7492V95.7492C78.1007 95.7685 77.9873 95.5776 77.9647 95.3907L76.6353 84.4266Z" fill="#0B0B0B"/>
<path d="M96.2916 28.8101C96.2301 28.7274 95.1202 28.679 92.9617 28.6649C90.8032 28.6508 88.8798 28.6719 87.1915 28.7282C85.5032 28.7845 83.927 28.9408 82.4629 29.197C80.9988 29.4532 79.8431 30.051 78.9959 30.9905C78.1487 31.9299 77.4431 34.1435 76.8789 37.6312C76.3147 41.119 75.927 45.1987 75.7156 49.8705C75.5041 54.5424 75.453 59.2688 75.562 64.0499C75.6492 67.8728 75.7015 70.1673 75.719 70.9335C75.7234 71.1267 75.732 71.3169 75.745 71.5097C75.7933 72.225 75.9315 74.2725 76.1596 77.6522C76.382 80.9476 76.5189 82.9765 76.5704 83.7387C76.5859 83.969 76.6075 84.1974 76.6353 84.4266L77.9647 95.3907C77.9873 95.5776 78.1007 95.7685 78.2879 95.7492V95.7492C78.3904 95.7387 78.48 95.699 78.5567 95.6303C78.6334 95.5615 78.6825 95.4768 78.7042 95.3761C78.7258 95.2754 78.5452 93.351 78.1624 89.6027C77.7796 85.8545 77.444 81.8426 77.1557 77.5668C76.8673 73.2911 76.6689 68.7703 76.5605 64.0044C76.452 59.2386 76.5029 54.5327 76.7129 49.8868C76.923 45.2409 77.2937 41.2116 77.8252 37.7989C78.3566 34.3861 78.9847 32.2869 79.7097 31.5013C80.4346 30.7156 81.4671 30.2353 82.807 30.0602C84.1469 29.8851 85.6401 29.7719 87.2864 29.7204C88.9327 29.6689 90.8312 29.6184 92.9819 29.5691C95.1326 29.5197 96.2378 29.4531 96.2974 29.3691M96.2916 28.8101C96.353 28.8928 96.3842 28.9856 96.3853 29.0886C96.3864 29.1916 96.3571 29.2851 96.2974 29.3691M96.2916 28.8101C96.2301 28.7274 96.1407 28.9665 96.0233 29.5274C95.9059 30.0883 95.6091 31.6354 95.133 34.1687C94.6569 36.702 94.1727 39.7737 93.6802 43.3839C93.1877 46.9941 92.7238 50.971 92.2883 55.3148C91.8529 59.6586 91.5326 64.1802 91.3275 68.8796C91.1224 73.579 91.0004 77.8686 90.9615 81.7484C90.9227 85.6281 90.6787 88.0864 90.2297 89.1233C89.7807 90.1602 89.0832 90.9137 88.1371 91.384C87.191 91.8542 85.7005 92.417 83.6656 93.0724C81.6308 93.7277 80.561 94.11 80.4563 94.2193C80.3515 94.3285 80.3126 94.4576 80.3394 94.6065C80.3662 94.7555 80.4478 94.8629 80.584 94.9287C80.7203 94.9945 80.8551 94.9917 80.9885 94.9201C81.1218 94.8486 81.1988 94.7379 81.2193 94.5879C81.2398 94.438 81.1954 94.3107 81.0862 94.2059C80.9769 94.1012 80.8478 94.0623 80.6989 94.0891C80.55 94.1159 80.4426 94.1975 80.3767 94.3337C80.3109 94.47 80.3137 94.6048 80.3853 94.7382C80.4568 94.8715 80.5676 94.9484 80.7175 94.9689C80.8674 94.9895 81.9834 94.6609 84.0655 93.9832C86.1475 93.3055 87.7102 92.6734 88.7533 92.0871C89.7965 91.5007 90.5756 90.6182 91.0906 89.4397C91.6056 88.2611 91.8889 85.7223 91.9406 81.8232C91.9922 77.9242 92.12 73.6341 92.324 68.9529C92.5279 64.2716 92.8469 59.7651 93.2809 55.4333C93.715 51.1014 94.1788 47.1258 94.6724 43.5065C95.166 39.8872 95.5277 36.8979 95.7576 34.5386C95.9874 32.1794 96.12 30.749 96.1552 30.2474C96.1904 29.7458 96.2378 29.4531 96.2974 29.3691M96.2916 28.8101C96.353 28.8928 96.3842 28.9856 96.3853 29.0886C96.3864 29.1916 96.3571 29.2851 96.2974 29.3691" stroke="black" stroke-width="6"/>
<path d="M91.3222 109.187C91.3222 113.085 88.5532 115.68 85.7962 115.68C83.0392 115.68 80.2701 113.085 80.2701 109.187C80.2701 105.29 83.0392 102.694 85.7962 102.694C88.5532 102.694 91.3222 105.29 91.3222 109.187Z" fill="#0B0B0B" stroke="black" stroke-width="6"/>
</svg>
